<svg width="200.000000" height="200.000000" viewBox="0 0 200 200" fill="none" xmlns="http://www.w3.org/2000/svg" xmlns:xlink="http://www.w3.org/1999/xlink">
	<desc>
			Created with Pixso.
	</desc>
	<defs/>
	<rect id="icon-黑" width="200.000000" height="200.000000" fill="#1A1A1A" fill-opacity="1.000000"/>
	<path id="减去顶层" d="M65.9072 149.361C75.5928 156.068 87.3418 159.999 100 159.999C131.327 159.999 157.09 135.921 159.77 105.283C148.225 113.787 132.286 123.109 114.052 131.612C96.4277 139.83 79.5967 145.913 65.9072 149.361Z" clip-rule="evenodd" fill="#FFFFFF" fill-opacity="1.000000" fill-rule="evenodd"/>
	<path id="减去顶层" d="M45.8662 125.884C49.7373 122.612 54.4043 119.149 59.7256 115.603C59.6191 115.327 59.5156 115.05 59.415 114.771C56.0537 105.555 55.792 95.1523 59.415 85.2275C62.7646 76.0068 69.251 67.8701 78.4062 62.5957C86.8984 57.6855 97.0977 55.6221 107.501 57.4668C117.163 59.1641 126.303 64.1387 133.086 72.2383C134.823 74.3066 136.37 76.5391 137.701 78.9092C143.762 77.0713 149.383 75.6523 154.404 74.6875C144.848 54.21 124.065 40 100 40C66.8926 40 40 66.8926 40 100C40 109.266 42.1064 118.045 45.8662 125.884Z" clip-rule="evenodd" fill="#FFFFFF" fill-opacity="1.000000" fill-rule="evenodd"/>
	<path id="减去顶层" d="M112.058 71.0254C109.849 71.0254 108.058 72.8164 108.058 75.0254C108.058 76.7324 109.127 78.1895 110.632 78.7637C110.705 80.0791 110.623 81.3848 110.396 82.6582C109.908 85.4287 108.773 87.9238 107.174 90.0156C108.741 89.335 110.3 88.6709 111.847 88.0264C112.561 86.4648 113.061 84.8359 113.351 83.1807C113.617 81.6719 113.706 80.1719 113.633 78.7031C115.059 78.0918 116.058 76.6748 116.058 75.0254C116.058 72.8164 114.267 71.0254 112.058 71.0254ZM86.0811 100.037C87.5723 99.2646 89.0859 98.4961 90.6201 97.7314C88.251 97.6299 85.9844 97.0332 83.9355 96.0332C82.4111 95.293 81.0479 94.3535 79.8613 93.2627C79.9863 92.875 80.0537 92.4619 80.0537 92.0332C80.0537 89.8242 78.2627 88.0332 76.0537 88.0332C73.8447 88.0332 72.0537 89.8242 72.0537 92.0332C72.0537 94.2422 73.8447 96.0332 76.0537 96.0332C76.7334 96.0332 77.373 95.8643 77.9326 95.5654C79.3525 96.8525 80.9346 97.9121 82.6211 98.7295C83.752 99.2803 84.9102 99.7148 86.0811 100.037Z" clip-rule="evenodd" fill="#FFFFFF" fill-opacity="1.000000" fill-rule="evenodd"/>
	<path id="矢量 15" d="M32.4238 145.536C28.1172 136.303 57.0879 113.68 97.1318 95.0068C137.175 76.335 173.126 68.6836 177.433 77.917C181.738 87.1514 152.769 109.775 112.726 128.447C72.6816 147.12 36.7295 154.771 32.4238 145.536Z" fill="#BB2C2C" fill-opacity="1.000000" fill-rule="evenodd"/>
</svg>
